<svg xmlns="http://www.w3.org/2000/svg" viewBox="0 0 800 440"><defs><linearGradient id="g" x1="0" x2="1"><stop stop-color="#55778a"/><stop offset="1" stop-color="#a8522f"/></linearGradient></defs><rect width="800" height="440" fill="none"/><g fill="none" stroke="url(#g)" opacity=".9"><ellipse cx="400" cy="220" rx="70" ry="34" stroke-width="4" opacity="1.0"/><ellipse cx="400" cy="220" rx="94" ry="47" stroke-width="4" opacity="0.94"/><ellipse cx="400" cy="220" rx="118" ry="60" stroke-width="2" opacity="0.88"/><ellipse cx="400" cy="220" rx="142" ry="73" stroke-width="2" opacity="0.8200000000000001"/><ellipse cx="400" cy="220" rx="166" ry="86" stroke-width="2" opacity="0.76"/><ellipse cx="400" cy="220" rx="190" ry="99" stroke-width="2" opacity="0.7"/><ellipse cx="400" cy="220" rx="214" ry="112" stroke-width="2" opacity="0.64"/><ellipse cx="400" cy="220" rx="238" ry="125" stroke-width="2" opacity="0.5800000000000001"/><ellipse cx="400" cy="220" rx="262" ry="138" stroke-width="2" opacity="0.52"/><ellipse cx="400" cy="220" rx="286" ry="151" stroke-width="2" opacity="0.45999999999999996"/></g><path d="M105 342 C230 280 265 152 389 177 C520 204 562 333 695 95" fill="none" stroke="#a8522f" stroke-width="5" stroke-linecap="round"/><g fill="#55778a"><circle cx="110" cy="335" r="5" opacity=".55"/><circle cx="163" cy="293" r="5" opacity=".55"/><circle cx="216" cy="251" r="5" opacity=".55"/><circle cx="269" cy="209" r="5" opacity=".55"/><circle cx="322" cy="335" r="5" opacity=".55"/><circle cx="375" cy="293" r="5" opacity=".55"/><circle cx="428" cy="251" r="5" opacity=".55"/><circle cx="481" cy="209" r="5" opacity=".55"/><circle cx="534" cy="335" r="5" opacity=".55"/><circle cx="587" cy="293" r="5" opacity=".55"/><circle cx="640" cy="251" r="5" opacity=".55"/><circle cx="693" cy="209" r="5" opacity=".55"/></g></svg>